#!OML:ASF E:/inclinewalkrobotboard/Project1/Captureday1/Session1/subject1.ASF
:FULLY-SPECIFIED
:DEGREES
251
root 0 0 0 1.84341680997847 -3.885758020643663 2.1833199550400955
lowerback 11.983672263312398 1.16169069625325 -0.10527212043105683
upperback -4.4583735451815185 1.4590090209749436 -0.8556711172900539
thorax -11.566177310413766 0.6757506136670673 -1.1296870507046968
lowerneck -6.235793801609304 1.7543352880061083 4.834225780115683
upperneck 18.17432025368746 3.288531342109299 -8.490208536144433
head 6.6963199311200565 1.223822174857883 -3.2936122516361044
rclavicle -2.144742927204138E-15 -1.1000558882306922E-15
rhumerus 23.25410929881577 17.83576175675634 -48.49741495790927
rradius 74.89595017343336
rwrist 25.817899230943965
rhand -34.81840606130752 -58.10220018442539
rfingers 7.12502
rthumb -7.961154570584737 -88.01258017146647
lclavicle -1.1115265595899722E-15 -8.38160971321597E-16
lhumerus 22.437981646479074 -14.551010605871062 45.76794342623552
lradius 71.34372496077788
lwrist -21.382763091762655
lhand -45.27243743230013 -69.01967899424676
lfingers 7.125020000000012
lthumb -18.046578075305586 -39.771574230118176
rfemur -24.570963669006783 -0.8017202743050427 18.572619090288107
rtibia 45.004204965867075
rfoot -32.964257982648775 -17.873154339675047
rtoes -23.021077920888764
lfemur -26.48669239953368 1.8189771236066679 -15.46781366936995
ltibia 44.878749441398334
lfoot -32.315104294770336 3.3590213559713753
ltoes -21.504500082339028
252
root 0 0 0 1.8434244905384927 -3.8857359975097623 2.183431702232392
lowerback 11.98367767694358 1.1616690570533261 -0.10537507892279063
upperback -4.458372959979609 1.458965223284947 -0.8556898069156637
thorax -11.566178046078662 0.6757327494773859 -1.1296407394185752
lowerneck -6.2357963578151905 1.7543368254045004 4.834213218835296
upperneck 18.174337248686406 3.2885361481895634 -8.490203269986091
head 6.696326120271928 1.223824012358195 -3.293609553046293
rclavicle -2.1446481082101923E-15 -1.1000957224124807E-15
rhumerus 23.254100888733795 17.835769167885523 -48.497440607210066
rradius 74.89594413418212
rwrist 25.817874473885446
rhand -34.818398872045606 -58.102168715979765
rfingers 7.12502
rthumb -7.961147588097246 -88.01254370404473
lclavicle -1.1114357869657524E-15 -8.382005291776874E-16
lhumerus 22.437937672053394 -14.550928151972037 45.767920594779156
lradius 71.34366833818255
lwrist -21.38280498988133
lhand -45.27243343270091 -69.01973278338265
lfingers 7.125020000000012
lthumb -18.046574346172193 -39.77162653396195
rfemur -24.571659228063282 -0.8021053663536439 18.572035707930173
rtibia 45.00628492227196
rfoot -32.96305963887083 -17.873058487387556
rtoes -23.020883936439798
lfemur -26.485393124237838 1.8186823561719163 -15.468850140591057
ltibia 44.875664264321856
lfoot -32.316750228808964 3.3600174106236267
ltoes -21.50401419294041
253
root 0 0 0 1.8434237531028157 -3.885665433892754 2.1835550321286328
lowerback 11.983669512267351 1.1616282450701683 -0.10550629584681537
upperback -4.458377056598051 1.458892718924237 -0.8557012573266151
thorax -11.566175569175567 0.6757014958623129 -1.1295670594455216
lowerneck -6.235781855746663 1.7543484121227497 4.834207628536247
upperneck 18.17433436239885 3.28855563703089 -8.490207768030006
head 6.69632255788826 1.2238325237489844 -3.2936094124045923
rclavicle -2.1445361526385376E-15 -1.1001204036474784E-15
rhumerus 23.254044414172682 17.835713908003434 -48.49743168581027
rradius 74.8958984796007
rwrist 25.817889173385396
rhand -34.818389134680366 -58.10213473424792
rfingers 7.12502
rthumb -7.9611379001622655 -88.01250489265794
lclavicle -1.1113358914015593E-15 -8.382203081268207E-16
lhumerus 22.437923748901554 -14.55090675603575 45.767917172565944
lradius 71.34364949591622
lwrist -21.382812040680662
lhand -45.27243025027957 -69.01973555100642
lfingers 7.125020000000012
lthumb -18.046571272888837 -39.77162885457544
rfemur -24.572486039008304 -0.8024594176089108 18.571459619109323
rtibia 45.00813582084855
rfoot -32.96192971968564 -17.872992170868606
rtoes -23.020658283011212
lfemur -26.48386327095873 1.8184020068684723 -15.469906252504938
ltibia 44.872813354485025
lfoot -32.31829846998813 3.3608438350122176
ltoes -21.50370079489384
254
root 0 0 0 1.843415472046361 -3.885558440706594 2.1836790758920626
lowerback 11.983650255033803 1.161574209862903 -0.10565156931454367
upperback -4.458384957164819 1.4588012621973094 -0.8557058237351399
thorax -11.56617059931541 0.6756612094945939 -1.129475868217677
lowerneck -6.235753508858519 1.7543675378145 4.83420848982711
upperneck 18.174315895207847 3.2885859852632597 -8.490220396803878
head 6.696311273434123 1.2238459744272507 -3.293611554037019
rclavicle -2.144416621025994E-15 -1.1001317464100607E-15
rhumerus 23.253946022386145 17.835602595248375 -48.49739024656036
rradius 74.89581820941989
rwrist 25.817940641273918
rhand -34.818377699153395 -58.10210074312821
rfingers 7.12502
rthumb -7.961126377750745 -88.01246670633287
lclavicle -1.1112353475050498E-15 -8.382240097819919E-16
lhumerus 22.437933124592263 -14.550932672389726 45.76792862909544
lradius 71.34366026931473
lwrist -21.38279243060967
lhand -45.27242775580217 -69.01969936078481
lfingers 7.125020000000012
lthumb -18.04656875808062 -39.771593000152265
rfemur -24.573354324484722 -0.8027679921309105 18.570924198928527
rtibia 45.00970632509937
rfoot -32.96090470631786 -17.87294591427289
rtoes -23.02042037159657
lfemur -26.48223637555546 1.8181547792847739 -15.470898525056915
ltibia 44.87039546926795
lfoot -32.319616096037215 3.3614418790416503
ltoes -21.503562649017038
255
root 0 0 0 1.8434004719867603 -3.88542797255535 2.1837950518514706
lowerback 11.983623318651356 1.1615128853057999 -0.10579816815617926
upperback -4.458395612984093 1.4587003440502277 -0.8557044068219365
thorax -11.56616423579838 0.6756161782947934 -1.1293766668069398
lowerneck -6.235714981188625 1.754391724307358 4.834215065411123
upperneck 18.174286424084816 3.288623456374144 -8.49023948292942
head 6.696294460064371 1.2238626615499983 -3.2936156722233667
rclavicle -2.1442995665166007E-15 -1.1001328402465418E-15
rhumerus 23.253814416262642 17.8354452731461 -48.497320258101595
rradius 74.895710514896
rwrist 25.818024014893933
rhand -34.81836553990097 -58.102069473011134
rfingers 7.12502
rthumb -7.961114020118076 -88.01243221715214
lclavicle -1.111143041487359E-15 -8.38216379783686E-16
lhumerus 22.43795936177115 -14.55099190155809 45.76795008991449
lradius 71.34369251522807
lwrist -21.382754662191253
lhand -45.272426030570486 -69.01963730772607
lfingers 7.125020000000012
lthumb -18.04656692025071 -39.77153186841737
rfemur -24.574195920429005 -0.8030270192181139 18.570448785634717
rtibia 45.01100125296524
rfoot -32.95999598955802 -17.872911219660992
rtoes -23.020176421958105
lfemur -26.48063898319885 1.8179589718218105 -15.471761492211822
ltibia 44.86857464504235
lfoot -32.32060806849535 3.3617740801089324
ltoes -21.503585120031175
